<svg width="142" height="35" viewBox="0 0 142 35" fill="none" xmlns="http://www.w3.org/2000/svg">
<path d="M36.29 27.0049C39.2745 22.6636 40.2241 17.7117 38.7997 12.6242C37.0363 6.45181 32.1521 2.11005 26.3188 0.753768C22.3165 -0.128215 15.1941 0.00751831 11.1923 0.00751831L12.0062 1.43191C11.9386 1.43191 11.8705 1.43191 11.8029 1.43191L0 1.29618L4.2737 9.16488C4.34131 9.30061 4.40942 9.43633 4.54515 9.50395L0.271957 9.43633L4.27419 16.8298C4.61326 17.5079 5.08805 17.9827 5.69858 18.3899C5.76619 19.5429 5.97005 20.6963 6.30912 21.8492C8.47977 29.5822 15.8056 34.1269 23.5386 34.0593H40.5642L36.29 27.0049ZM20.0102 2.24627C21.0274 2.24627 21.8417 2.72107 22.3165 3.60255L24.1481 6.92613L18.3824 6.85851C17.3652 6.85851 16.5508 6.31611 16.076 5.50174L14.2445 2.17816L20.0102 2.24627ZM12.0738 23.9527L19.8068 24.0204L18.8572 22.3926C18.3824 21.5787 17.5685 21.104 16.6189 21.104L14.5159 21.0358L12.1419 17.1694H8.41115C7.46155 17.1017 6.57956 16.627 6.10476 15.8126L3.8665 11.6746L8.75022 11.7427C9.69982 11.7427 10.5818 12.2175 10.9885 13.0314L11.5314 13.981C11.9386 14.7272 12.7524 15.202 13.702 15.2696L14.9231 15.3372L12.481 10.8602C12.0062 10.0464 11.1923 9.50346 10.1746 9.50346H8.47877C7.46105 9.50346 6.64718 8.96105 6.17238 8.14669L3.59455 3.46633L11.2594 3.53395C12.2772 3.60157 13.091 4.07686 13.5658 4.89073L14.9902 7.46854C15.465 8.35053 16.2789 8.82532 17.2966 8.82532L23.6052 8.89294C28.0141 8.96055 29.6423 8.7572 31.7454 11.5384C33.5089 13.7766 35.0014 16.7616 35.0014 17.7112L34.798 23.5451L31.0672 17.9151C30.5924 17.1689 29.7786 16.7622 28.8966 16.7622L22.6561 16.6265C23.809 20.7644 26.7259 21.3068 30.2534 21.3749L36.4939 31.4819C34.0518 31.3462 27.8794 31.3462 26.0478 31.2786C19.8744 31.211 16.4151 30.8714 12.0738 23.9527Z" fill="white"/>
<path d="M39.6939 2.75482H38.6797V1.66797H41.867V2.75482H40.8528V5.72477H39.6939V2.75482ZM44.4023 3.62426L45.6339 1.66846H46.6481V5.72526H45.4891V3.91424L44.7649 5.07317H44.0407L43.3165 3.91424V5.72526H42.2296V1.66846H43.1712L44.4023 3.62426Z" fill="white"/>
<path fill-rule="evenodd" clip-rule="evenodd" d="M107.149 14.8567V23.7442C107.149 25.6539 105.344 27.4589 103.4 27.4589H91.2145V11.1074H103.4C105.344 11.1074 107.149 12.9124 107.149 14.8567ZM141.38 14.8567V17.9119V18.0506C141.38 19.6824 140.096 21.2099 138.534 21.6266L138.568 21.7653L141.38 27.4589H137.11L134.298 21.7653H130.028V23.5704V27.4589H126.174V11.1074H137.596C139.575 11.1074 141.38 12.9124 141.38 14.8567ZM137.249 17.9119L137.423 17.7035V15.1347L137.284 14.996H130.028V17.9124L137.249 17.9119ZM113.641 23.6054H120.654C121.904 23.6054 122.98 24.265 123.501 25.4104L124.543 27.4589H111.94C110.76 27.4589 109.788 26.4868 109.788 25.2717V13.2946C109.788 12.0796 110.76 11.1074 111.94 11.1074H113.642H124.543L123.501 13.1558C122.98 14.3013 121.904 14.9609 120.655 14.9609H113.642V17.3564H118.676V21.2099H113.642V23.6054H113.641ZM54.6575 14.9609L54.4492 15.1692V23.3971L54.6575 23.5709H62.3996L62.6079 23.3971V21.9737V21.2099V17.3564H66.531V23.7442C66.531 25.6885 64.7605 27.4589 62.8163 27.4589H54.3104C52.3662 27.4589 50.5957 25.6885 50.5957 23.7442V14.8222C50.5957 12.8779 52.3662 11.1074 54.3104 11.1074H66.8781L65.8714 13.1558C65.3505 14.3013 64.2742 14.9609 63.0246 14.9609H54.6575ZM73.4391 11.1074V27.4589H69.5856V11.1074H73.4391ZM79.584 23.6054H85.4513C86.7009 23.6054 87.7772 24.265 88.3327 25.4104L89.3394 27.4589H75.7305V11.1074H79.584V23.6054ZM95.068 23.5704H103.018L103.192 23.3966V15.1342L103.053 14.9955H95.0685V23.5704H95.068Z" fill="white"/>
</svg>
