<svg width="133" height="32" viewBox="0 0 133 32" fill="none" xmlns="http://www.w3.org/2000/svg">
<path d="M34.0952 25.3716C36.8992 21.2928 37.7913 16.6405 36.4531 11.8607C34.7963 6.06159 30.2075 1.98243 24.727 0.708179C20.9668 -0.12046 14.2751 0.00706359 10.5154 0.00706359L11.28 1.34531C11.2165 1.34531 11.1525 1.34531 11.089 1.34531L0 1.21779L4.01522 8.61057C4.07874 8.73809 4.14273 8.86561 4.27025 8.92913L0.255509 8.86561L4.01568 15.8119C4.33424 16.449 4.78032 16.8951 5.35392 17.2777C5.41744 18.3609 5.60897 19.4445 5.92753 20.5277C7.9669 27.793 14.8496 32.0628 22.1149 31.9993H38.1108L34.0952 25.3716ZM18.7999 2.11041C19.7556 2.11041 20.5207 2.55649 20.9668 3.38466L22.6876 6.50723L17.2706 6.4437C16.3149 6.4437 15.5498 5.9341 15.1037 5.16898L13.3829 2.04642L18.7999 2.11041ZM11.3436 22.504L18.6089 22.5676L17.7167 21.0383C17.2706 20.2736 16.506 19.8276 15.6138 19.8276L13.638 19.7636L11.4076 16.1309H7.90243C7.01026 16.0674 6.18162 15.6213 5.73554 14.8562L3.63265 10.9685L8.22099 11.0325C9.11316 11.0325 9.94179 11.4786 10.3239 12.2432L10.834 13.1354C11.2165 13.8365 11.9812 14.2826 12.8733 14.3461L14.0205 14.4096L11.7261 10.2034C11.28 9.43874 10.5154 8.92868 9.55923 8.92868H7.96596C7.0098 8.92868 6.24515 8.41908 5.79907 7.65396L3.37714 3.25669L10.5785 3.32021C11.5346 3.38374 12.2992 3.83028 12.7453 4.59493L14.0836 7.01684C14.5297 7.84547 15.2943 8.29155 16.2505 8.29155L22.1775 8.35508C26.3198 8.4186 27.8495 8.22755 29.8254 10.8405C31.4822 12.9434 32.8844 15.7479 32.8844 16.64L32.6934 22.121L29.1882 16.8316C28.7422 16.1305 27.9775 15.7484 27.1489 15.7484L21.2858 15.6209C22.369 19.5085 25.1095 20.0181 28.4236 20.0821L34.2867 29.5779C31.9923 29.4503 26.1932 29.4503 24.4724 29.3868C18.6724 29.3233 15.4223 29.0042 11.3436 22.504Z" fill="white"/>
<path d="M37.2927 2.58764H36.3398V1.56652H39.3344V2.58764H38.3816V5.37796H37.2927V2.58764ZM41.7163 3.40449L42.8734 1.56698H43.8263V5.37842H42.7374V3.67693L42.057 4.76577H41.3766L40.6962 3.67693V5.37842H39.6751V1.56698H40.5597L41.7163 3.40449Z" fill="white"/>
<path fill-rule="evenodd" clip-rule="evenodd" d="M100.668 13.959V22.309C100.668 24.1032 98.9725 25.7991 97.1458 25.7991H85.6973V10.4365H97.1458C98.9725 10.4365 100.668 12.1323 100.668 13.959ZM132.829 13.959V16.8294V16.9598C132.829 18.4928 131.622 19.928 130.154 20.3195L130.187 20.4498L132.829 25.7991H128.817L126.175 20.4498H122.163V22.1457V25.7991H118.543V10.4365H129.274C131.133 10.4365 132.829 12.1323 132.829 13.959ZM128.948 16.8294L129.111 16.6337V14.2202L128.98 14.0899H122.164V16.8299L128.948 16.8294ZM106.768 22.1786H113.356C114.53 22.1786 115.542 22.7983 116.031 23.8745L117.01 25.7991H105.17C104.061 25.7991 103.147 24.8857 103.147 23.7441V12.4914C103.147 11.3499 104.061 10.4365 105.17 10.4365H106.768H117.01L116.031 12.361C115.542 13.4372 114.531 14.0569 113.357 14.0569H106.768V16.3076H111.498V19.928H106.768V22.1786H106.768ZM51.3513 14.0569L51.1556 14.2527V21.9828L51.3513 22.1461H58.6251L58.8209 21.9828V20.6456V19.928V16.3076H62.5067V22.309C62.5067 24.1357 60.8433 25.7991 59.0166 25.7991H51.0252C49.1985 25.7991 47.5352 24.1357 47.5352 22.309V13.9266C47.5352 12.0999 49.1985 10.4365 51.0252 10.4365H62.8328L61.887 12.361C61.3976 13.4372 60.3864 14.0569 59.2124 14.0569H51.3513ZM68.997 10.4365V25.7991H65.3766V10.4365H68.997ZM74.7702 22.1786H80.2827C81.4567 22.1786 82.4679 22.7983 82.9897 23.8745L83.9356 25.7991H71.1497V10.4365H74.7702V22.1786ZM89.3177 22.1457H96.7872L96.9505 21.9824V14.2197L96.8202 14.0894H89.3182V22.1457H89.3177Z" fill="white"/>
</svg>
