<svg width="704" height="591" viewBox="0 0 704 591" fill="none" xmlns="http://www.w3.org/2000/svg">
<path d="M629.189 468.192C680.903 392.898 697.41 307.033 672.691 218.891C642.118 111.885 557.472 36.5902 456.321 13.0912C386.962 -2.1954 263.45 0.162635 194.091 0.162635L208.239 24.8814H204.743L0 22.442L74.0749 158.883C75.2132 161.241 76.4329 163.599 78.7909 164.737L4.71607 163.599L74.0749 291.827C79.9293 303.617 88.2231 311.83 98.7936 318.904C99.932 338.907 103.51 358.909 109.364 378.912C147.011 512.995 274.02 591.786 408.103 590.647H703.264L629.189 468.355V468.192ZM346.957 38.9483C364.601 38.9483 378.749 47.1607 386.962 62.4473L418.755 120.097L318.823 118.959C301.178 118.959 287.03 109.527 278.817 95.4598L247.025 37.8099L346.957 38.9483ZM209.377 415.34L343.46 416.478L327.035 388.263C318.823 374.115 304.675 365.902 288.25 365.902L251.822 364.764L210.678 297.763H145.954C129.529 296.625 114.161 288.331 105.949 274.264L67.1634 202.547L151.809 203.686C168.315 203.686 183.602 211.898 190.594 226.046L200.027 242.552C207.101 255.481 221.168 263.694 237.674 264.913L258.815 266.052L216.451 188.399C208.239 174.251 194.091 164.9 176.446 164.9H147.011C129.367 164.9 115.219 155.468 107.006 141.401L62.366 60.0893L195.229 61.2276C212.874 62.366 227.022 70.6598 235.234 84.7267L259.953 129.448C268.166 144.735 282.314 152.947 299.958 152.947L409.323 154.085C485.755 155.224 513.971 151.727 550.479 199.945C581.053 238.731 606.91 290.526 606.91 306.951L603.413 408.103L538.689 310.448C530.477 297.519 516.329 290.445 501.042 290.445L392.816 288.087C412.819 359.804 463.395 369.236 524.541 370.374L632.767 545.601C590.404 543.243 483.397 543.243 451.686 542.104C344.68 540.966 284.672 535.03 209.377 415.096V415.34Z" fill="url(#paint0_radial_189_4012)"/>
<defs>
<radialGradient id="paint0_radial_189_4012" cx="0" cy="0" r="1" gradientUnits="userSpaceOnUse" gradientTransform="translate(600.974 83.8323) scale(575.117 575.117)">
<stop stop-color="#47FFEA"/>
<stop offset="0.19" stop-color="#4AC8FE"/>
<stop offset="0.92" stop-color="#6213FD"/>
<stop offset="1" stop-color="#A245FF"/>
</radialGradient>
</defs>
</svg>
